{
	"asset":{
		"generator":"Khronos glTF Blender I/O v4.3.47",
		"version":"2.0"
	},
	"scene":0,
	"scenes":[
		{
			"name":"Scene",
			"nodes":[
				0,
				1,
				2,
				3,
				4,
				5,
				6,
				7,
				8,
				9,
				10,
				11
			]
		}
	],
	"nodes":[
		{
			"mesh":0,
			"name":"patate1",
			"scale":[
				3.5,
				3.5,
				3.5
			],
			"translation":[
				-0.01646534912288189,
				0.053912460803985596,
				0.20731863379478455
			]
		},
		{
			"mesh":1,
			"name":"patate2",
			"scale":[
				3.5,
				3.5,
				3.5
			],
			"translation":[
				0.2628933787345886,
				0.0564102865755558,
				0.6024565100669861
			]
		},
		{
			"mesh":2,
			"name":"patate3",
			"scale":[
				3.5,
				3.5,
				3.5
			],
			"translation":[
				0.24875237047672272,
				0.04381252080202103,
				0.1786787509918213
			]
		},
		{
			"mesh":3,
			"name":"patate4",
			"scale":[
				3.5,
				3.5,
				3.5
			],
			"translation":[
				0.24933135509490967,
				0.06906154751777649,
				-0.16530707478523254
			]
		},
		{
			"mesh":4,
			"name":"patate5",
			"scale":[
				3.5,
				3.5,
				3.5
			],
			"translation":[
				0.2476586103439331,
				0.05511677265167236,
				-0.4775787889957428
			]
		},
		{
			"mesh":5,
			"name":"patate6",
			"scale":[
				3.5,
				3.5,
				3.5
			],
			"translation":[
				-0.2859489619731903,
				0.04661602899432182,
				-0.13149265944957733
			]
		},
		{
			"mesh":6,
			"name":"patate7",
			"scale":[
				3.5,
				3.5,
				3.5
			],
			"translation":[
				-0.27216240763664246,
				0.031228285282850266,
				0.19278401136398315
			]
		},
		{
			"mesh":7,
			"name":"patate8",
			"scale":[
				3.5,
				3.5,
				3.5
			],
			"translation":[
				-0.2581011950969696,
				0.027806183323264122,
				0.6125747561454773
			]
		},
		{
			"mesh":8,
			"name":"patate9",
			"scale":[
				3.5,
				3.5,
				3.5
			],
			"translation":[
				-0.013852625153958797,
				0.03535378724336624,
				0.6340991854667664
			]
		},
		{
			"mesh":9,
			"name":"patate10",
			"scale":[
				3.5,
				3.5,
				3.5
			],
			"translation":[
				0.004699148237705231,
				0.0695415809750557,
				-0.1456402838230133
			]
		},
		{
			"mesh":10,
			"name":"patate11",
			"scale":[
				3.5,
				3.5,
				3.5
			],
			"translation":[
				-0.002600599080324173,
				0.06555543839931488,
				-0.45210903882980347
			]
		},
		{
			"mesh":11,
			"name":"patate12",
			"scale":[
				3.5,
				3.5,
				3.5
			],
			"translation":[
				-0.26382625102996826,
				0.04292817786335945,
				-0.46987855434417725
			]
		}
	],
	"materials":[
		{
			"doubleSided":true,
			"emissiveFactor":[
				1,
				1,
				1
			],
			"emissiveTexture":{
				"index":0
			},
			"name":"potato 1 slice.004_Baked.003",
			"pbrMetallicRoughness":{
				"baseColorFactor":[
					0,
					0,
					0,
					1
				]
			}
		}
	],
	"meshes":[
		{
			"name":"Cube.005",
			"primitives":[
				{
					"attributes":{
						"POSITION":0,
						"NORMAL":1,
						"TEXCOORD_0":2
					},
					"indices":3,
					"material":0
				}
			]
		},
		{
			"name":"Cube.019",
			"primitives":[
				{
					"attributes":{
						"POSITION":4,
						"NORMAL":5,
						"TEXCOORD_0":6
					},
					"indices":7,
					"material":0
				}
			]
		},
		{
			"name":"Cube.020",
			"primitives":[
				{
					"attributes":{
						"POSITION":8,
						"NORMAL":9,
						"TEXCOORD_0":10
					},
					"indices":11,
					"material":0
				}
			]
		},
		{
			"name":"Cube.021",
			"primitives":[
				{
					"attributes":{
						"POSITION":12,
						"NORMAL":13,
						"TEXCOORD_0":14
					},
					"indices":15,
					"material":0
				}
			]
		},
		{
			"name":"Cube.022",
			"primitives":[
				{
					"attributes":{
						"POSITION":16,
						"NORMAL":17,
						"TEXCOORD_0":18
					},
					"indices":19,
					"material":0
				}
			]
		},
		{
			"name":"Cube.023",
			"primitives":[
				{
					"attributes":{
						"POSITION":20,
						"NORMAL":21,
						"TEXCOORD_0":22
					},
					"indices":23,
					"material":0
				}
			]
		},
		{
			"name":"Cube.024",
			"primitives":[
				{
					"attributes":{
						"POSITION":24,
						"NORMAL":25,
						"TEXCOORD_0":26
					},
					"indices":27,
					"material":0
				}
			]
		},
		{
			"name":"Cube.025",
			"primitives":[
				{
					"attributes":{
						"POSITION":28,
						"NORMAL":29,
						"TEXCOORD_0":30
					},
					"indices":31,
					"material":0
				}
			]
		},
		{
			"name":"Cube.026",
			"primitives":[
				{
					"attributes":{
						"POSITION":32,
						"NORMAL":33,
						"TEXCOORD_0":34
					},
					"indices":35,
					"material":0
				}
			]
		},
		{
			"name":"Cube.027",
			"primitives":[
				{
					"attributes":{
						"POSITION":36,
						"NORMAL":37,
						"TEXCOORD_0":38
					},
					"indices":39,
					"material":0
				}
			]
		},
		{
			"name":"Cube.028",
			"primitives":[
				{
					"attributes":{
						"POSITION":40,
						"NORMAL":41,
						"TEXCOORD_0":42
					},
					"indices":43,
					"material":0
				}
			]
		},
		{
			"name":"Cube.029",
			"primitives":[
				{
					"attributes":{
						"POSITION":44,
						"NORMAL":45,
						"TEXCOORD_0":46
					},
					"indices":47,
					"material":0
				}
			]
		}
	],
	"textures":[
		{
			"sampler":0,
			"source":0
		}
	],
	"images":[
		{
			"mimeType":"image/jpeg",
			"name":"potato 1 slice.004_Bake1_CyclesBake_COMBINED",
			"uri":"potato%201%20slice_004_Bake1_CyclesBake_COMBINED.jpg"
		}
	],
	"accessors":[
		{
			"bufferView":0,
			"componentType":5126,
			"count":174,
			"max":[
				0.018045522272586823,
				0.008273321203887463,
				0.01215449720621109
			],
			"min":[
				-0.016196630895137787,
				-0.01233837753534317,
				-0.01732541248202324
			],
			"type":"VEC3"
		},
		{
			"bufferView":1,
			"componentType":5126,
			"count":174,
			"type":"VEC3"
		},
		{
			"bufferView":2,
			"componentType":5126,
			"count":174,
			"type":"VEC2"
		},
		{
			"bufferView":3,
			"componentType":5123,
			"count":870,
			"type":"SCALAR"
		},
		{
			"bufferView":4,
			"componentType":5126,
			"count":407,
			"max":[
				0.0157327800989151,
				0.027521247044205666,
				0.03327725827693939
			],
			"min":[
				-0.01930299401283264,
				-0.027667082846164703,
				-0.033639729022979736
			],
			"type":"VEC3"
		},
		{
			"bufferView":5,
			"componentType":5126,
			"count":407,
			"type":"VEC3"
		},
		{
			"bufferView":6,
			"componentType":5126,
			"count":407,
			"type":"VEC2"
		},
		{
			"bufferView":7,
			"componentType":5123,
			"count":2094,
			"type":"SCALAR"
		},
		{
			"bufferView":8,
			"componentType":5126,
			"count":354,
			"max":[
				0.01718670129776001,
				0.022017497569322586,
				0.013335518538951874
			],
			"min":[
				-0.017239853739738464,
				-0.02267272211611271,
				-0.013938024640083313
			],
			"type":"VEC3"
		},
		{
			"bufferView":9,
			"componentType":5126,
			"count":354,
			"type":"VEC3"
		},
		{
			"bufferView":10,
			"componentType":5126,
			"count":354,
			"type":"VEC2"
		},
		{
			"bufferView":11,
			"componentType":5123,
			"count":1764,
			"type":"SCALAR"
		},
		{
			"bufferView":12,
			"componentType":5126,
			"count":407,
			"max":[
				0.01913260668516159,
				0.02142084389925003,
				0.026304151862859726
			],
			"min":[
				-0.02014465257525444,
				-0.02255183272063732,
				-0.026533033698797226
			],
			"type":"VEC3"
		},
		{
			"bufferView":13,
			"componentType":5126,
			"count":407,
			"type":"VEC3"
		},
		{
			"bufferView":14,
			"componentType":5126,
			"count":407,
			"type":"VEC2"
		},
		{
			"bufferView":15,
			"componentType":5123,
			"count":2094,
			"type":"SCALAR"
		},
		{
			"bufferView":16,
			"componentType":5126,
			"count":346,
			"max":[
				0.016843445599079132,
				0.01886693201959133,
				0.015296794474124908
			],
			"min":[
				-0.01580614224076271,
				-0.019655020907521248,
				-0.0159466415643692
			],
			"type":"VEC3"
		},
		{
			"bufferView":17,
			"componentType":5126,
			"count":346,
			"type":"VEC3"
		},
		{
			"bufferView":18,
			"componentType":5126,
			"count":346,
			"type":"VEC2"
		},
		{
			"bufferView":19,
			"componentType":5123,
			"count":1752,
			"type":"SCALAR"
		},
		{
			"bufferView":20,
			"componentType":5126,
			"count":228,
			"max":[
				0.022586137056350708,
				0.023009121417999268,
				0.022620296105742455
			],
			"min":[
				-0.01376507431268692,
				-0.014214345254004002,
				-0.0296938493847847
			],
			"type":"VEC3"
		},
		{
			"bufferView":21,
			"componentType":5126,
			"count":228,
			"type":"VEC3"
		},
		{
			"bufferView":22,
			"componentType":5126,
			"count":228,
			"type":"VEC2"
		},
		{
			"bufferView":23,
			"componentType":5123,
			"count":1170,
			"type":"SCALAR"
		},
		{
			"bufferView":24,
			"componentType":5126,
			"count":223,
			"max":[
				0.017976723611354828,
				0.0173037126660347,
				0.02291145920753479
			],
			"min":[
				-0.017513267695903778,
				-0.015111405402421951,
				-0.021085593849420547
			],
			"type":"VEC3"
		},
		{
			"bufferView":25,
			"componentType":5126,
			"count":223,
			"type":"VEC3"
		},
		{
			"bufferView":26,
			"componentType":5126,
			"count":223,
			"type":"VEC2"
		},
		{
			"bufferView":27,
			"componentType":5123,
			"count":1140,
			"type":"SCALAR"
		},
		{
			"bufferView":28,
			"componentType":5126,
			"count":211,
			"max":[
				0.014477778226137161,
				0.04252288490533829,
				0.018778756260871887
			],
			"min":[
				-0.020504824817180634,
				-0.03280957043170929,
				-0.011583074927330017
			],
			"type":"VEC3"
		},
		{
			"bufferView":29,
			"componentType":5126,
			"count":211,
			"type":"VEC3"
		},
		{
			"bufferView":30,
			"componentType":5126,
			"count":211,
			"type":"VEC2"
		},
		{
			"bufferView":31,
			"componentType":5123,
			"count":1032,
			"type":"SCALAR"
		},
		{
			"bufferView":32,
			"componentType":5126,
			"count":213,
			"max":[
				0.025186998769640923,
				0.021132461726665497,
				0.02425999939441681
			],
			"min":[
				-0.01561376266181469,
				-0.015533847734332085,
				-0.015086933970451355
			],
			"type":"VEC3"
		},
		{
			"bufferView":33,
			"componentType":5126,
			"count":213,
			"type":"VEC3"
		},
		{
			"bufferView":34,
			"componentType":5126,
			"count":213,
			"type":"VEC2"
		},
		{
			"bufferView":35,
			"componentType":5123,
			"count":1110,
			"type":"SCALAR"
		},
		{
			"bufferView":36,
			"componentType":5126,
			"count":213,
			"max":[
				0.01893387734889984,
				0.015294412150979042,
				0.021029997617006302
			],
			"min":[
				-0.027709785848855972,
				-0.013449838384985924,
				-0.018350228667259216
			],
			"type":"VEC3"
		},
		{
			"bufferView":37,
			"componentType":5126,
			"count":213,
			"type":"VEC3"
		},
		{
			"bufferView":38,
			"componentType":5126,
			"count":213,
			"type":"VEC2"
		},
		{
			"bufferView":39,
			"componentType":5123,
			"count":1068,
			"type":"SCALAR"
		},
		{
			"bufferView":40,
			"componentType":5126,
			"count":184,
			"max":[
				0.013506149873137474,
				0.009858265519142151,
				0.012792140245437622
			],
			"min":[
				-0.017026562243700027,
				-0.015805797651410103,
				-0.01836329698562622
			],
			"type":"VEC3"
		},
		{
			"bufferView":41,
			"componentType":5126,
			"count":184,
			"type":"VEC3"
		},
		{
			"bufferView":42,
			"componentType":5126,
			"count":184,
			"type":"VEC2"
		},
		{
			"bufferView":43,
			"componentType":5123,
			"count":924,
			"type":"SCALAR"
		},
		{
			"bufferView":44,
			"componentType":5126,
			"count":169,
			"max":[
				0.01585671305656433,
				0.01671653613448143,
				0.011371679604053497
			],
			"min":[
				-0.00985272228717804,
				-0.02216828055679798,
				-0.01763954758644104
			],
			"type":"VEC3"
		},
		{
			"bufferView":45,
			"componentType":5126,
			"count":169,
			"type":"VEC3"
		},
		{
			"bufferView":46,
			"componentType":5126,
			"count":169,
			"type":"VEC2"
		},
		{
			"bufferView":47,
			"componentType":5123,
			"count":846,
			"type":"SCALAR"
		}
	],
	"bufferViews":[
		{
			"buffer":0,
			"byteLength":2088,
			"byteOffset":0,
			"target":34962
		},
		{
			"buffer":0,
			"byteLength":2088,
			"byteOffset":2088,
			"target":34962
		},
		{
			"buffer":0,
			"byteLength":1392,
			"byteOffset":4176,
			"target":34962
		},
		{
			"buffer":0,
			"byteLength":1740,
			"byteOffset":5568,
			"target":34963
		},
		{
			"buffer":0,
			"byteLength":4884,
			"byteOffset":7308,
			"target":34962
		},
		{
			"buffer":0,
			"byteLength":4884,
			"byteOffset":12192,
			"target":34962
		},
		{
			"buffer":0,
			"byteLength":3256,
			"byteOffset":17076,
			"target":34962
		},
		{
			"buffer":0,
			"byteLength":4188,
			"byteOffset":20332,
			"target":34963
		},
		{
			"buffer":0,
			"byteLength":4248,
			"byteOffset":24520,
			"target":34962
		},
		{
			"buffer":0,
			"byteLength":4248,
			"byteOffset":28768,
			"target":34962
		},
		{
			"buffer":0,
			"byteLength":2832,
			"byteOffset":33016,
			"target":34962
		},
		{
			"buffer":0,
			"byteLength":3528,
			"byteOffset":35848,
			"target":34963
		},
		{
			"buffer":0,
			"byteLength":4884,
			"byteOffset":39376,
			"target":34962
		},
		{
			"buffer":0,
			"byteLength":4884,
			"byteOffset":44260,
			"target":34962
		},
		{
			"buffer":0,
			"byteLength":3256,
			"byteOffset":49144,
			"target":34962
		},
		{
			"buffer":0,
			"byteLength":4188,
			"byteOffset":52400,
			"target":34963
		},
		{
			"buffer":0,
			"byteLength":4152,
			"byteOffset":56588,
			"target":34962
		},
		{
			"buffer":0,
			"byteLength":4152,
			"byteOffset":60740,
			"target":34962
		},
		{
			"buffer":0,
			"byteLength":2768,
			"byteOffset":64892,
			"target":34962
		},
		{
			"buffer":0,
			"byteLength":3504,
			"byteOffset":67660,
			"target":34963
		},
		{
			"buffer":0,
			"byteLength":2736,
			"byteOffset":71164,
			"target":34962
		},
		{
			"buffer":0,
			"byteLength":2736,
			"byteOffset":73900,
			"target":34962
		},
		{
			"buffer":0,
			"byteLength":1824,
			"byteOffset":76636,
			"target":34962
		},
		{
			"buffer":0,
			"byteLength":2340,
			"byteOffset":78460,
			"target":34963
		},
		{
			"buffer":0,
			"byteLength":2676,
			"byteOffset":80800,
			"target":34962
		},
		{
			"buffer":0,
			"byteLength":2676,
			"byteOffset":83476,
			"target":34962
		},
		{
			"buffer":0,
			"byteLength":1784,
			"byteOffset":86152,
			"target":34962
		},
		{
			"buffer":0,
			"byteLength":2280,
			"byteOffset":87936,
			"target":34963
		},
		{
			"buffer":0,
			"byteLength":2532,
			"byteOffset":90216,
			"target":34962
		},
		{
			"buffer":0,
			"byteLength":2532,
			"byteOffset":92748,
			"target":34962
		},
		{
			"buffer":0,
			"byteLength":1688,
			"byteOffset":95280,
			"target":34962
		},
		{
			"buffer":0,
			"byteLength":2064,
			"byteOffset":96968,
			"target":34963
		},
		{
			"buffer":0,
			"byteLength":2556,
			"byteOffset":99032,
			"target":34962
		},
		{
			"buffer":0,
			"byteLength":2556,
			"byteOffset":101588,
			"target":34962
		},
		{
			"buffer":0,
			"byteLength":1704,
			"byteOffset":104144,
			"target":34962
		},
		{
			"buffer":0,
			"byteLength":2220,
			"byteOffset":105848,
			"target":34963
		},
		{
			"buffer":0,
			"byteLength":2556,
			"byteOffset":108068,
			"target":34962
		},
		{
			"buffer":0,
			"byteLength":2556,
			"byteOffset":110624,
			"target":34962
		},
		{
			"buffer":0,
			"byteLength":1704,
			"byteOffset":113180,
			"target":34962
		},
		{
			"buffer":0,
			"byteLength":2136,
			"byteOffset":114884,
			"target":34963
		},
		{
			"buffer":0,
			"byteLength":2208,
			"byteOffset":117020,
			"target":34962
		},
		{
			"buffer":0,
			"byteLength":2208,
			"byteOffset":119228,
			"target":34962
		},
		{
			"buffer":0,
			"byteLength":1472,
			"byteOffset":121436,
			"target":34962
		},
		{
			"buffer":0,
			"byteLength":1848,
			"byteOffset":122908,
			"target":34963
		},
		{
			"buffer":0,
			"byteLength":2028,
			"byteOffset":124756,
			"target":34962
		},
		{
			"buffer":0,
			"byteLength":2028,
			"byteOffset":126784,
			"target":34962
		},
		{
			"buffer":0,
			"byteLength":1352,
			"byteOffset":128812,
			"target":34962
		},
		{
			"buffer":0,
			"byteLength":1692,
			"byteOffset":130164,
			"target":34963
		}
	],
	"samplers":[
		{
			"magFilter":9729,
			"minFilter":9987
		}
	],
	"buffers":[
		{
			"byteLength":131856,
			"uri":"patates.bin"
		}
	]
}
